<svg id="Layer_1" enable-background="new 0 0 511.735 511.735" height="512" viewBox="0 0 511.735 511.735" width="512" xmlns="http://www.w3.org/2000/svg"><g><path d="m256.927 511.17h-2.118c-22.766 0-41.221-18.456-41.221-41.221v-54.446h84.561v54.446c-.001 22.765-18.456 41.221-41.222 41.221z" fill="#00337a"/><path d="m255.867 511.17h1.22c22.677 0 41.061-18.456 41.061-41.222v-54.446h-42.281z" fill="#002659"/><path d="m240.303 444.096h255.654c8.714 0 15.778-7.092 15.778-15.84v-153.152c0-73.554-58.823-133.181-131.384-133.181h-259.694" fill="#ff641a"/><path d="m255.735 444.096h-240.848c-8.222 0-14.887-6.665-14.887-14.887v-159.419c0-70.619 57.248-127.867 127.867-127.867 70.619 0 127.867 57.248 127.867 127.867v174.306z" fill="#ff9100"/><path d="m190.637 388.412h-125.539c-5.531 0-10.014-4.484-10.014-10.014v-68.218c0-5.531 4.484-10.014 10.014-10.014h125.54c5.531 0 10.014 4.484 10.014 10.014v68.217c0 5.531-4.484 10.015-10.015 10.015z" fill="#fdbf00"/><path d="m380.351 141.922h-124.484v302.174h240.089c8.714 0 15.778-7.092 15.778-15.839v-153.153c.001-73.554-58.822-133.182-131.383-133.182z" fill="#f03800"/><path d="m355.014.565h146.718c7.569 0 12.35 8.166 8.668 14.805l-16.026 28.895c-1.665 3.001-1.671 6.652-.017 9.66l16.128 29.323c3.651 6.638-1.132 14.774-8.685 14.774h-165.626" fill="#ff405c"/><ellipse cx="350.978" cy="303.133" fill="#00337a" rx="32.804" ry="32.932"/><path d="m368.837.565h-23.112c-5.275 0-9.551 4.293-9.551 9.588v253.736h32.663z" fill="#00337a"/><path d="m350.978 351.511c-26.572 0-48.19-21.702-48.19-48.378s21.618-48.378 48.19-48.378 48.19 21.702 48.19 48.378-21.618 48.378-48.19 48.378zm0-65.865c-9.605 0-17.419 7.844-17.419 17.487 0 9.642 7.814 17.487 17.419 17.487s17.419-7.844 17.419-17.487-7.814-17.487-17.419-17.487z" fill="#002659"/></g></svg>